<svg xmlns="http://www.w3.org/2000/svg" xmlns:xlink="http://www.w3.org/1999/xlink" width="20" zoomAndPan="magnify" viewBox="0 0 375 374.999991" height="20" preserveAspectRatio="xMidYMid meet" version="1.0"><defs><clipPath id="fa5968e263"><path d="M 121 118 L 364 118 L 364 364 L 121 364 Z M 121 118 " clip-rule="nonzero"/></clipPath><clipPath id="4e209b2a56"><path d="M 187.496094 -309.273438 L 684.414062 187.644531 L 187.496094 684.5625 L -309.425781 187.644531 Z M 187.496094 -309.273438 " clip-rule="nonzero"/></clipPath><clipPath id="b534552ec4"><path d="M 187.496094 -309.273438 L 684.414062 187.644531 L 187.496094 684.5625 L -309.425781 187.644531 Z M 187.496094 -309.273438 " clip-rule="nonzero"/></clipPath><clipPath id="579bd3392b"><path d="M 11 11 L 254 11 L 254 257 L 11 257 Z M 11 11 " clip-rule="nonzero"/></clipPath><clipPath id="29e4f13e5a"><path d="M 187.496094 -309.273438 L 684.414062 187.644531 L 187.496094 684.5625 L -309.425781 187.644531 Z M 187.496094 -309.273438 " clip-rule="nonzero"/></clipPath><clipPath id="b566dae592"><path d="M 187.496094 -309.273438 L 684.414062 187.644531 L 187.496094 684.5625 L -309.425781 187.644531 Z M 187.496094 -309.273438 " clip-rule="nonzero"/></clipPath></defs><rect x="-37.5" width="450" fill="#ffffff" y="-37.499999" height="449.999989" fill-opacity="1"/><rect x="-37.5" width="450" fill="#ffffff" y="-37.499999" height="449.999989" fill-opacity="1"/><g clip-path="url(#fa5968e263)"><g clip-path="url(#4e209b2a56)"><g clip-path="url(#b534552ec4)"><path fill="#000000" d="M 327.445312 154.351562 C 310.816406 137.71875 290.535156 127.027344 269.171875 121.964844 C 264.628906 120.914062 260.050781 120.0625 255.453125 119.5 C 250.949219 118.957031 246.429688 118.625 241.886719 118.585938 C 237.445312 118.566406 232.960938 118.742188 228.539062 119.207031 C 224.132812 119.652344 219.746094 120.390625 215.382812 121.304688 C 192.988281 126.078125 171.679688 137.023438 154.351562 154.351562 C 137.023438 171.679688 126.078125 192.988281 121.324219 215.359375 C 130.464844 216.777344 139.71875 216.71875 148.820312 215.070312 C 153.089844 199.738281 161.183594 185.28125 173.234375 173.230469 C 185.265625 161.199219 199.761719 153.109375 215.089844 148.800781 C 219.652344 147.539062 224.269531 146.648438 228.925781 146.0625 C 233.429688 145.519531 237.96875 145.210938 242.492188 145.308594 C 246.914062 145.386719 251.339844 145.8125 255.785156 146.492188 C 260.148438 147.171875 264.535156 148.0625 268.804688 149.382812 C 283.398438 153.808594 297.117188 161.742188 308.605469 173.230469 C 345.9375 210.566406 345.941406 271.304688 308.605469 308.640625 C 271.289062 345.957031 210.550781 345.957031 173.214844 308.621094 C 161.726562 297.132812 153.808594 283.394531 149.367188 268.820312 C 140.265625 269.847656 131.085938 269.984375 122.003906 269.171875 C 127.03125 290.535156 137.742188 310.832031 154.371094 327.464844 C 202.109375 375.199219 279.75 375.21875 327.484375 327.484375 C 375.183594 279.746094 375.183594 202.085938 327.445312 154.347656 Z M 327.445312 154.351562 " fill-opacity="1" fill-rule="nonzero"/></g></g></g><g clip-path="url(#579bd3392b)"><g clip-path="url(#29e4f13e5a)"><g clip-path="url(#b566dae592)"><path fill="#000000" d="M 253.664062 159.625 C 249.203125 158.925781 244.699219 158.539062 240.238281 158.578125 C 235.519531 158.636719 230.824219 159.0625 226.207031 159.917969 C 221.917969 175.265625 213.828125 189.722656 201.777344 201.773438 C 189.726562 213.824219 175.25 221.898438 159.9375 226.1875 C 155.398438 227.46875 150.757812 228.339844 146.082031 228.941406 C 137.175781 230.046875 128.152344 229.914062 119.285156 228.535156 C 114.898438 227.835938 110.511719 226.941406 106.246094 225.625 C 91.671875 221.179688 77.933594 213.261719 66.445312 201.773438 C 29.128906 164.457031 29.128906 103.71875 66.445312 66.40625 C 103.761719 29.089844 164.519531 29.070312 201.835938 66.386719 C 213.339844 77.890625 221.257812 91.632812 225.683594 106.183594 C 230.183594 105.679688 234.707031 105.390625 239.226562 105.332031 C 243.84375 105.253906 248.464844 105.410156 253.042969 105.796875 C 248 84.449219 237.304688 64.171875 220.65625 47.523438 C 172.941406 -0.195312 95.300781 -0.214844 47.5625 47.523438 C -0.15625 95.238281 -0.175781 172.878906 47.5625 220.617188 C 64.191406 237.246094 84.511719 247.941406 105.855469 252.984375 C 110.394531 254.070312 114.957031 254.90625 119.574219 255.449219 C 128.5 256.535156 137.5625 256.671875 146.527344 255.777344 C 150.933594 255.332031 155.320312 254.59375 159.664062 253.664062 C 182.039062 248.910156 203.347656 237.964844 220.675781 220.636719 C 237.964844 203.308594 248.910156 182 253.664062 159.628906 Z M 253.664062 159.625 " fill-opacity="1" fill-rule="nonzero"/></g></g></g></svg>