<svg xmlns="http://www.w3.org/2000/svg" xmlns:xlink="http://www.w3.org/1999/xlink" width="20" zoomAndPan="magnify" viewBox="0 0 375 374.999991" height="20" preserveAspectRatio="xMidYMid meet" version="1.0"><defs><clipPath id="c8bc0c11f9"><path d="M 132 129 L 335 129 L 335 335 L 132 335 Z M 132 129 " clip-rule="nonzero"/></clipPath><clipPath id="6f19e21655"><path d="M 187.5 -227.839844 L 602.746094 187.40625 L 187.5 602.65625 L -227.75 187.40625 Z M 187.5 -227.839844 " clip-rule="nonzero"/></clipPath><clipPath id="cbaa57d1c8"><path d="M 187.5 -227.839844 L 602.746094 187.40625 L 187.5 602.65625 L -227.75 187.40625 Z M 187.5 -227.839844 " clip-rule="nonzero"/></clipPath><clipPath id="b7a300ab54"><path d="M 40 40 L 243 40 L 243 246 L 40 246 Z M 40 40 " clip-rule="nonzero"/></clipPath><clipPath id="2c6c6a054f"><path d="M 187.5 -227.839844 L 602.746094 187.40625 L 187.5 602.65625 L -227.75 187.40625 Z M 187.5 -227.839844 " clip-rule="nonzero"/></clipPath><clipPath id="5556902ccb"><path d="M 187.5 -227.839844 L 602.746094 187.40625 L 187.5 602.65625 L -227.75 187.40625 Z M 187.5 -227.839844 " clip-rule="nonzero"/></clipPath></defs><g clip-path="url(#c8bc0c11f9)"><g clip-path="url(#6f19e21655)"><g clip-path="url(#cbaa57d1c8)"><path fill="#88e8f0" d="M 304.507812 159.785156 C 290.601562 145.882812 273.648438 136.945312 255.785156 132.707031 C 251.988281 131.832031 248.160156 131.117188 244.316406 130.648438 C 240.550781 130.195312 236.773438 129.917969 232.976562 129.886719 C 229.261719 129.871094 225.511719 130.015625 221.8125 130.40625 C 218.128906 130.777344 214.464844 131.394531 210.8125 132.15625 C 192.089844 136.148438 174.277344 145.300781 159.789062 159.789062 C 145.300781 174.277344 136.148438 192.089844 132.175781 210.796875 C 139.816406 211.980469 147.554688 211.933594 155.164062 210.550781 C 158.734375 197.734375 165.5 185.648438 175.574219 175.574219 C 185.632812 165.515625 197.753906 158.75 210.570312 155.148438 C 214.382812 154.09375 218.246094 153.347656 222.136719 152.859375 C 225.902344 152.40625 229.699219 152.144531 233.480469 152.226562 C 237.179688 152.292969 240.878906 152.648438 244.59375 153.214844 C 248.242188 153.785156 251.910156 154.53125 255.480469 155.632812 C 267.679688 159.332031 279.152344 165.96875 288.753906 175.574219 C 319.96875 206.789062 319.972656 257.570312 288.753906 288.785156 C 257.554688 319.984375 206.773438 319.984375 175.558594 288.769531 C 165.953125 279.164062 159.335938 267.679688 155.621094 255.492188 C 148.011719 256.351562 140.335938 256.46875 132.742188 255.785156 C 136.945312 273.648438 145.902344 290.617188 159.804688 304.523438 C 199.714844 344.433594 264.628906 344.453125 304.542969 304.539062 C 344.421875 264.628906 344.421875 199.699219 304.507812 159.785156 Z M 304.507812 159.785156 " fill-opacity="1" fill-rule="nonzero"/></g></g></g><g clip-path="url(#b7a300ab54)"><g clip-path="url(#2c6c6a054f)"><g clip-path="url(#5556902ccb)"><path fill="#88e8f0" d="M 242.820312 164.199219 C 239.089844 163.613281 235.324219 163.289062 231.59375 163.320312 C 227.652344 163.371094 223.726562 163.726562 219.863281 164.441406 C 216.277344 177.273438 209.511719 189.363281 199.4375 199.4375 C 189.363281 209.511719 177.257812 216.261719 164.457031 219.847656 C 160.664062 220.917969 156.785156 221.648438 152.875 222.152344 C 145.425781 223.074219 137.882812 222.960938 130.46875 221.808594 C 126.800781 221.226562 123.136719 220.480469 119.566406 219.375 C 107.382812 215.660156 95.894531 209.042969 86.289062 199.4375 C 55.089844 168.238281 55.089844 117.457031 86.289062 86.257812 C 117.488281 55.058594 168.289062 55.042969 199.488281 86.242188 C 209.109375 95.863281 215.726562 107.347656 219.425781 119.515625 C 223.191406 119.09375 226.96875 118.851562 230.75 118.800781 C 234.613281 118.738281 238.472656 118.867188 242.300781 119.191406 C 238.085938 101.34375 229.144531 84.390625 215.222656 70.46875 C 175.328125 30.574219 110.414062 30.558594 70.503906 70.46875 C 30.609375 110.367188 30.589844 175.277344 70.503906 215.191406 C 84.40625 229.09375 101.394531 238.035156 119.242188 242.253906 C 123.039062 243.160156 126.851562 243.859375 130.710938 244.3125 C 138.175781 245.222656 145.75 245.335938 153.246094 244.589844 C 156.929688 244.214844 160.597656 243.601562 164.230469 242.820312 C 182.9375 238.84375 200.75 229.695312 215.238281 215.207031 C 229.695312 200.71875 238.847656 182.90625 242.820312 164.199219 Z M 242.820312 164.199219 " fill-opacity="1" fill-rule="nonzero"/></g></g></g></svg>