<?xml version="1.0" encoding="UTF-8"?>
<svg width="40pt" height="40pt" version="1.1" viewBox="0 0 100 100" xmlns="http://www.w3.org/2000/svg">
 <defs>
  <clipPath id="d">
   <path d="m44 42h23v23h-23z"/>
  </clipPath>
  <clipPath id="c">
   <path d="m38.473 6.9883 54.539 31.488-31.488 54.539-54.539-31.488z"/>
  </clipPath>
  <clipPath id="b">
   <path d="m33 35h23v23h-23z"/>
  </clipPath>
  <clipPath id="a">
   <path d="m38.473 6.9883 54.539 31.488-31.488 54.539-54.539-31.488z"/>
  </clipPath>
 </defs>
 <g>
  <g clip-path="url(#d)">
   <g clip-path="url(#c)">
    <path d="m61.348 43.887c-1.8242-1.0547-3.832-1.5078-5.7969-1.4492-0.41797 0.011719-0.83594 0.046875-1.2461 0.10547-0.40234 0.058593-0.80469 0.13281-1.1953 0.23438-0.38672 0.10156-0.76953 0.22266-1.1406 0.36328s-0.73438 0.30469-1.0898 0.48828c-1.8281 0.92578-3.418 2.3711-4.5195 4.2734-1.0977 1.9023-1.5508 4-1.4453 6.0469 0.82422-0.089844 1.625-0.30859 2.3711-0.66406 0.015625-1.4258 0.37891-2.8672 1.1406-4.1875 0.76172-1.3203 1.8281-2.3594 3.0586-3.0859 0.36328-0.21484 0.74609-0.39844 1.1328-0.55859 0.375-0.15234 0.76172-0.28125 1.1562-0.38281 0.38672-0.097656 0.77734-0.16016 1.1797-0.20312 0.39453-0.042969 0.79297-0.066407 1.1953-0.054688 1.3672 0.046875 2.7383 0.41406 4 1.1406 4.0977 2.3672 5.5078 7.625 3.1406 11.723-2.3633 4.0977-7.625 5.5039-11.723 3.1406-1.2617-0.72656-2.2656-1.7344-2.9883-2.8945-0.76562 0.30078-1.5547 0.52734-2.3594 0.66797 0.93359 1.7344 2.3281 3.2422 4.1562 4.2969 5.2422 3.0273 11.965 1.2266 14.988-4.0156 3.0273-5.2383 1.2227-11.961-4.0156-14.984z" fill="#87e7ef"/>
   </g>
  </g>
  <g clip-path="url(#b)">
   <g clip-path="url(#a)">
    <path d="m55.078 46.055c-0.40234 0.042968-0.80078 0.11328-1.1875 0.22266-0.40625 0.11328-0.80469 0.26172-1.1836 0.44141-0.015625 1.4258-0.37891 2.8672-1.1445 4.1914-0.76172 1.3203-1.8281 2.3594-3.0586 3.0859-0.36328 0.21484-0.74609 0.39844-1.1367 0.55859-0.74609 0.30469-1.5312 0.5-2.332 0.58594-0.39453 0.042969-0.79688 0.066406-1.1953 0.050781-1.3633-0.046875-2.7383-0.41406-4-1.1406-4.0977-2.3672-5.5078-7.625-3.1406-11.723 2.3672-4.0977 7.625-5.5078 11.723-3.1406 1.2617 0.73047 2.2656 1.7344 2.9883 2.8945 0.37891-0.14844 0.76172-0.27734 1.1562-0.38672 0.39844-0.11328 0.80078-0.20703 1.207-0.28125-0.92969-1.7305-2.3281-3.2422-4.1562-4.2969-5.2383-3.0234-11.961-1.2227-14.988 4.0156-3.0234 5.2383-1.2227 11.961 4.0156 14.984 1.8281 1.0547 3.832 1.5078 5.7969 1.4492 0.41797-0.011718 0.83203-0.046875 1.2422-0.10547 0.79688-0.11328 1.5859-0.3125 2.3438-0.59766 0.37109-0.14062 0.73438-0.30859 1.0859-0.48828 1.8242-0.92969 3.418-2.3711 4.5156-4.2734 1.1055-1.9023 1.5586-4 1.4492-6.0469z" fill="#87e7ef"/>
   </g>
  </g>
 </g>
</svg>
